# xmcd CD database file
#
# Track frame offsets:
#	150
#	12085
#	24640
#	39837
#	53167
#	68215
#	78302
#	96332
#	107062
#	121175
#	137322
#	147730
#	160155
#	176310
#	189905
#
# Disc length: 2736 seconds
#
# Revision: 0
# Processed by: cddbd v1.5.1PL2 Copyright (c) Steve Scherf et al.
# Submitted via: CDex 1.51
#
DISCID=ba0aae0f
DTITLE=渡辺貞夫 - スーパー・セレクション ディスク： 1
DYEAR=1900
DGENRE=Jazz
TTITLE0=イパネマの娘
TTITLE1=メデイテーション
TTITLE2=黒いオルフェ
TTITLE3=オ・グランジ・アモール
TTITLE4=カミン・ホーム・ベイビー
TTITLE5=ボニータ
TTITLE6=ディンディ
TTITLE7=マシュ・ケ・ナダ
TTITLE8=いそしぎ
TTITLE9=ワン・ノート・サンバ
TTITLE10=フライ・ミー・トゥ・ザ・ムーン
TTITLE11=男と女
TTITLE12=ソ・ダンソ・サンバ
TTITLE13=彼女はキャリオカ
TTITLE14=シークレット・ラヴ
EXTD=
EXTT0=
EXTT1=
EXTT2=
EXTT3=
EXTT4=
EXTT5=
EXTT6=
EXTT7=
EXTT8=
EXTT9=
EXTT10=
EXTT11=
EXTT12=
EXTT13=
EXTT14=
PLAYORDER=
